G04 #@! TF.GenerationSoftware,KiCad,Pcbnew,5.1.5-52549c5~84~ubuntu18.04.1*
G04 #@! TF.CreationDate,2020-01-16T18:33:31+01:00*
G04 #@! TF.ProjectId,3d-printer-power-distribution-board,33642d70-7269-46e7-9465-722d706f7765,rev?*
G04 #@! TF.SameCoordinates,Original*
G04 #@! TF.FileFunction,Soldermask,Bot*
G04 #@! TF.FilePolarity,Negative*
%FSLAX46Y46*%
G04 Gerber Fmt 4.6, Leading zero omitted, Abs format (unit mm)*
G04 Created by KiCad (PCBNEW 5.1.5-52549c5~84~ubuntu18.04.1) date 2020-01-16 18:33:31*
%MOMM*%
%LPD*%
G04 APERTURE LIST*
%ADD10C,0.100000*%
G04 APERTURE END LIST*
D10*
G36*
X80296032Y-125164207D02*
G01*
X80494146Y-125224305D01*
X80494149Y-125224306D01*
X80548873Y-125253557D01*
X80676729Y-125321897D01*
X80836765Y-125453235D01*
X80968103Y-125613271D01*
X81013939Y-125699025D01*
X81065694Y-125795851D01*
X81065695Y-125795854D01*
X81125793Y-125993968D01*
X81141000Y-126148370D01*
X81141000Y-127851630D01*
X81125793Y-128006032D01*
X81065695Y-128204145D01*
X81065694Y-128204149D01*
X81013939Y-128300975D01*
X80968103Y-128386729D01*
X80836765Y-128546765D01*
X80676729Y-128678103D01*
X80571729Y-128734226D01*
X80494148Y-128775694D01*
X80494145Y-128775695D01*
X80296031Y-128835793D01*
X80090000Y-128856085D01*
X79883968Y-128835793D01*
X79685854Y-128775695D01*
X79685851Y-128775694D01*
X79572024Y-128714852D01*
X79503271Y-128678103D01*
X79343235Y-128546765D01*
X79211897Y-128386729D01*
X79114307Y-128204149D01*
X79114306Y-128204148D01*
X79114305Y-128204145D01*
X79054207Y-128006031D01*
X79039000Y-127851629D01*
X79039000Y-126148369D01*
X79054207Y-125993967D01*
X79114305Y-125795854D01*
X79177904Y-125676870D01*
X79211898Y-125613271D01*
X79343236Y-125453235D01*
X79503272Y-125321897D01*
X79631128Y-125253557D01*
X79685852Y-125224306D01*
X79685855Y-125224305D01*
X79883969Y-125164207D01*
X80090000Y-125143915D01*
X80296032Y-125164207D01*
G37*
G36*
X122206032Y-125164207D02*
G01*
X122404146Y-125224305D01*
X122404149Y-125224306D01*
X122458873Y-125253557D01*
X122586729Y-125321897D01*
X122746765Y-125453235D01*
X122878103Y-125613271D01*
X122923939Y-125699025D01*
X122975694Y-125795851D01*
X122975695Y-125795854D01*
X123035793Y-125993968D01*
X123051000Y-126148370D01*
X123051000Y-127851630D01*
X123035793Y-128006032D01*
X122975695Y-128204145D01*
X122975694Y-128204149D01*
X122923939Y-128300975D01*
X122878103Y-128386729D01*
X122746765Y-128546765D01*
X122586729Y-128678103D01*
X122481729Y-128734226D01*
X122404148Y-128775694D01*
X122404145Y-128775695D01*
X122206031Y-128835793D01*
X122000000Y-128856085D01*
X121793968Y-128835793D01*
X121595854Y-128775695D01*
X121595851Y-128775694D01*
X121482024Y-128714852D01*
X121413271Y-128678103D01*
X121253235Y-128546765D01*
X121121897Y-128386729D01*
X121024307Y-128204149D01*
X121024306Y-128204148D01*
X121024305Y-128204145D01*
X120964207Y-128006031D01*
X120949000Y-127851629D01*
X120949000Y-126148369D01*
X120964207Y-125993967D01*
X121024305Y-125795854D01*
X121087904Y-125676870D01*
X121121898Y-125613271D01*
X121253236Y-125453235D01*
X121413272Y-125321897D01*
X121541128Y-125253557D01*
X121595852Y-125224306D01*
X121595855Y-125224305D01*
X121793969Y-125164207D01*
X122000000Y-125143915D01*
X122206032Y-125164207D01*
G37*
G36*
X108236032Y-125164207D02*
G01*
X108434146Y-125224305D01*
X108434149Y-125224306D01*
X108488873Y-125253557D01*
X108616729Y-125321897D01*
X108776765Y-125453235D01*
X108908103Y-125613271D01*
X108953939Y-125699025D01*
X109005694Y-125795851D01*
X109005695Y-125795854D01*
X109065793Y-125993968D01*
X109081000Y-126148370D01*
X109081000Y-127851630D01*
X109065793Y-128006032D01*
X109005695Y-128204145D01*
X109005694Y-128204149D01*
X108953939Y-128300975D01*
X108908103Y-128386729D01*
X108776765Y-128546765D01*
X108616729Y-128678103D01*
X108511729Y-128734226D01*
X108434148Y-128775694D01*
X108434145Y-128775695D01*
X108236031Y-128835793D01*
X108030000Y-128856085D01*
X107823968Y-128835793D01*
X107625854Y-128775695D01*
X107625851Y-128775694D01*
X107512024Y-128714852D01*
X107443271Y-128678103D01*
X107283235Y-128546765D01*
X107151897Y-128386729D01*
X107054307Y-128204149D01*
X107054306Y-128204148D01*
X107054305Y-128204145D01*
X106994207Y-128006031D01*
X106979000Y-127851629D01*
X106979000Y-126148369D01*
X106994207Y-125993967D01*
X107054305Y-125795854D01*
X107117904Y-125676870D01*
X107151898Y-125613271D01*
X107283236Y-125453235D01*
X107443272Y-125321897D01*
X107571128Y-125253557D01*
X107625852Y-125224306D01*
X107625855Y-125224305D01*
X107823969Y-125164207D01*
X108030000Y-125143915D01*
X108236032Y-125164207D01*
G37*
G36*
X94266032Y-125164207D02*
G01*
X94464146Y-125224305D01*
X94464149Y-125224306D01*
X94518873Y-125253557D01*
X94646729Y-125321897D01*
X94806765Y-125453235D01*
X94938103Y-125613271D01*
X94983939Y-125699025D01*
X95035694Y-125795851D01*
X95035695Y-125795854D01*
X95095793Y-125993968D01*
X95111000Y-126148370D01*
X95111000Y-127851630D01*
X95095793Y-128006032D01*
X95035695Y-128204145D01*
X95035694Y-128204149D01*
X94983939Y-128300975D01*
X94938103Y-128386729D01*
X94806765Y-128546765D01*
X94646729Y-128678103D01*
X94541729Y-128734226D01*
X94464148Y-128775694D01*
X94464145Y-128775695D01*
X94266031Y-128835793D01*
X94060000Y-128856085D01*
X93853968Y-128835793D01*
X93655854Y-128775695D01*
X93655851Y-128775694D01*
X93542024Y-128714852D01*
X93473271Y-128678103D01*
X93313235Y-128546765D01*
X93181897Y-128386729D01*
X93084307Y-128204149D01*
X93084306Y-128204148D01*
X93084305Y-128204145D01*
X93024207Y-128006031D01*
X93009000Y-127851629D01*
X93009000Y-126148369D01*
X93024207Y-125993967D01*
X93084305Y-125795854D01*
X93147904Y-125676870D01*
X93181898Y-125613271D01*
X93313236Y-125453235D01*
X93473272Y-125321897D01*
X93601128Y-125253557D01*
X93655852Y-125224306D01*
X93655855Y-125224305D01*
X93853969Y-125164207D01*
X94060000Y-125143915D01*
X94266032Y-125164207D01*
G37*
G36*
X66326032Y-125164207D02*
G01*
X66524146Y-125224305D01*
X66524149Y-125224306D01*
X66578873Y-125253557D01*
X66706729Y-125321897D01*
X66866765Y-125453235D01*
X66998103Y-125613271D01*
X67043939Y-125699025D01*
X67095694Y-125795851D01*
X67095695Y-125795854D01*
X67155793Y-125993968D01*
X67171000Y-126148370D01*
X67171000Y-127851630D01*
X67155793Y-128006032D01*
X67095695Y-128204145D01*
X67095694Y-128204149D01*
X67043939Y-128300975D01*
X66998103Y-128386729D01*
X66866765Y-128546765D01*
X66706729Y-128678103D01*
X66601729Y-128734226D01*
X66524148Y-128775694D01*
X66524145Y-128775695D01*
X66326031Y-128835793D01*
X66120000Y-128856085D01*
X65913968Y-128835793D01*
X65715854Y-128775695D01*
X65715851Y-128775694D01*
X65602024Y-128714852D01*
X65533271Y-128678103D01*
X65373235Y-128546765D01*
X65241897Y-128386729D01*
X65144307Y-128204149D01*
X65144306Y-128204148D01*
X65144305Y-128204145D01*
X65084207Y-128006031D01*
X65069000Y-127851629D01*
X65069000Y-126148369D01*
X65084207Y-125993967D01*
X65144305Y-125795854D01*
X65207904Y-125676870D01*
X65241898Y-125613271D01*
X65373236Y-125453235D01*
X65533272Y-125321897D01*
X65661128Y-125253557D01*
X65715852Y-125224306D01*
X65715855Y-125224305D01*
X65913969Y-125164207D01*
X66120000Y-125143915D01*
X66326032Y-125164207D01*
G37*
G36*
X113944852Y-125152840D02*
G01*
X113976443Y-125162423D01*
X114005557Y-125177985D01*
X114031074Y-125198926D01*
X114052015Y-125224443D01*
X114067577Y-125253557D01*
X114077160Y-125285148D01*
X114081000Y-125324140D01*
X114081000Y-128675860D01*
X114077160Y-128714852D01*
X114067577Y-128746443D01*
X114052015Y-128775557D01*
X114031074Y-128801074D01*
X114005557Y-128822015D01*
X113976443Y-128837577D01*
X113944852Y-128847160D01*
X113905860Y-128851000D01*
X112154140Y-128851000D01*
X112115148Y-128847160D01*
X112083557Y-128837577D01*
X112054443Y-128822015D01*
X112028926Y-128801074D01*
X112007985Y-128775557D01*
X111992423Y-128746443D01*
X111982840Y-128714852D01*
X111979000Y-128675860D01*
X111979000Y-125324140D01*
X111982840Y-125285148D01*
X111992423Y-125253557D01*
X112007985Y-125224443D01*
X112028926Y-125198926D01*
X112054443Y-125177985D01*
X112083557Y-125162423D01*
X112115148Y-125152840D01*
X112154140Y-125149000D01*
X113905860Y-125149000D01*
X113944852Y-125152840D01*
G37*
G36*
X99974852Y-125152840D02*
G01*
X100006443Y-125162423D01*
X100035557Y-125177985D01*
X100061074Y-125198926D01*
X100082015Y-125224443D01*
X100097577Y-125253557D01*
X100107160Y-125285148D01*
X100111000Y-125324140D01*
X100111000Y-128675860D01*
X100107160Y-128714852D01*
X100097577Y-128746443D01*
X100082015Y-128775557D01*
X100061074Y-128801074D01*
X100035557Y-128822015D01*
X100006443Y-128837577D01*
X99974852Y-128847160D01*
X99935860Y-128851000D01*
X98184140Y-128851000D01*
X98145148Y-128847160D01*
X98113557Y-128837577D01*
X98084443Y-128822015D01*
X98058926Y-128801074D01*
X98037985Y-128775557D01*
X98022423Y-128746443D01*
X98012840Y-128714852D01*
X98009000Y-128675860D01*
X98009000Y-125324140D01*
X98012840Y-125285148D01*
X98022423Y-125253557D01*
X98037985Y-125224443D01*
X98058926Y-125198926D01*
X98084443Y-125177985D01*
X98113557Y-125162423D01*
X98145148Y-125152840D01*
X98184140Y-125149000D01*
X99935860Y-125149000D01*
X99974852Y-125152840D01*
G37*
G36*
X86004852Y-125152840D02*
G01*
X86036443Y-125162423D01*
X86065557Y-125177985D01*
X86091074Y-125198926D01*
X86112015Y-125224443D01*
X86127577Y-125253557D01*
X86137160Y-125285148D01*
X86141000Y-125324140D01*
X86141000Y-128675860D01*
X86137160Y-128714852D01*
X86127577Y-128746443D01*
X86112015Y-128775557D01*
X86091074Y-128801074D01*
X86065557Y-128822015D01*
X86036443Y-128837577D01*
X86004852Y-128847160D01*
X85965860Y-128851000D01*
X84214140Y-128851000D01*
X84175148Y-128847160D01*
X84143557Y-128837577D01*
X84114443Y-128822015D01*
X84088926Y-128801074D01*
X84067985Y-128775557D01*
X84052423Y-128746443D01*
X84042840Y-128714852D01*
X84039000Y-128675860D01*
X84039000Y-125324140D01*
X84042840Y-125285148D01*
X84052423Y-125253557D01*
X84067985Y-125224443D01*
X84088926Y-125198926D01*
X84114443Y-125177985D01*
X84143557Y-125162423D01*
X84175148Y-125152840D01*
X84214140Y-125149000D01*
X85965860Y-125149000D01*
X86004852Y-125152840D01*
G37*
G36*
X72034852Y-125152840D02*
G01*
X72066443Y-125162423D01*
X72095557Y-125177985D01*
X72121074Y-125198926D01*
X72142015Y-125224443D01*
X72157577Y-125253557D01*
X72167160Y-125285148D01*
X72171000Y-125324140D01*
X72171000Y-128675860D01*
X72167160Y-128714852D01*
X72157577Y-128746443D01*
X72142015Y-128775557D01*
X72121074Y-128801074D01*
X72095557Y-128822015D01*
X72066443Y-128837577D01*
X72034852Y-128847160D01*
X71995860Y-128851000D01*
X70244140Y-128851000D01*
X70205148Y-128847160D01*
X70173557Y-128837577D01*
X70144443Y-128822015D01*
X70118926Y-128801074D01*
X70097985Y-128775557D01*
X70082423Y-128746443D01*
X70072840Y-128714852D01*
X70069000Y-128675860D01*
X70069000Y-125324140D01*
X70072840Y-125285148D01*
X70082423Y-125253557D01*
X70097985Y-125224443D01*
X70118926Y-125198926D01*
X70144443Y-125177985D01*
X70173557Y-125162423D01*
X70205148Y-125152840D01*
X70244140Y-125149000D01*
X71995860Y-125149000D01*
X72034852Y-125152840D01*
G37*
G36*
X127914852Y-125152840D02*
G01*
X127946443Y-125162423D01*
X127975557Y-125177985D01*
X128001074Y-125198926D01*
X128022015Y-125224443D01*
X128037577Y-125253557D01*
X128047160Y-125285148D01*
X128051000Y-125324140D01*
X128051000Y-128675860D01*
X128047160Y-128714852D01*
X128037577Y-128746443D01*
X128022015Y-128775557D01*
X128001074Y-128801074D01*
X127975557Y-128822015D01*
X127946443Y-128837577D01*
X127914852Y-128847160D01*
X127875860Y-128851000D01*
X126124140Y-128851000D01*
X126085148Y-128847160D01*
X126053557Y-128837577D01*
X126024443Y-128822015D01*
X125998926Y-128801074D01*
X125977985Y-128775557D01*
X125962423Y-128746443D01*
X125952840Y-128714852D01*
X125949000Y-128675860D01*
X125949000Y-125324140D01*
X125952840Y-125285148D01*
X125962423Y-125253557D01*
X125977985Y-125224443D01*
X125998926Y-125198926D01*
X126024443Y-125177985D01*
X126053557Y-125162423D01*
X126085148Y-125152840D01*
X126124140Y-125149000D01*
X127875860Y-125149000D01*
X127914852Y-125152840D01*
G37*
M02*
