G04 #@! TF.GenerationSoftware,KiCad,Pcbnew,5.1.5-52549c5~84~ubuntu18.04.1*
G04 #@! TF.CreationDate,2020-01-16T18:33:31+01:00*
G04 #@! TF.ProjectId,3d-printer-power-distribution-board,33642d70-7269-46e7-9465-722d706f7765,rev?*
G04 #@! TF.SameCoordinates,Original*
G04 #@! TF.FileFunction,Legend,Top*
G04 #@! TF.FilePolarity,Positive*
%FSLAX46Y46*%
G04 Gerber Fmt 4.6, Leading zero omitted, Abs format (unit mm)*
G04 Created by KiCad (PCBNEW 5.1.5-52549c5~84~ubuntu18.04.1) date 2020-01-16 18:33:31*
%MOMM*%
%LPD*%
G04 APERTURE LIST*
%ADD10C,0.300000*%
%ADD11C,0.120000*%
%ADD12C,0.150000*%
G04 APERTURE END LIST*
D10*
X63425000Y-136203571D02*
X63425000Y-137417857D01*
X63353571Y-137560714D01*
X63282142Y-137632142D01*
X63139285Y-137703571D01*
X62925000Y-137703571D01*
X62782142Y-137632142D01*
X63425000Y-137132142D02*
X63282142Y-137203571D01*
X62996428Y-137203571D01*
X62853571Y-137132142D01*
X62782142Y-137060714D01*
X62710714Y-136917857D01*
X62710714Y-136489285D01*
X62782142Y-136346428D01*
X62853571Y-136275000D01*
X62996428Y-136203571D01*
X63282142Y-136203571D01*
X63425000Y-136275000D01*
X64139285Y-137203571D02*
X64139285Y-136203571D01*
X64139285Y-135703571D02*
X64067857Y-135775000D01*
X64139285Y-135846428D01*
X64210714Y-135775000D01*
X64139285Y-135703571D01*
X64139285Y-135846428D01*
X64639285Y-136203571D02*
X65210714Y-136203571D01*
X64853571Y-135703571D02*
X64853571Y-136989285D01*
X64925000Y-137132142D01*
X65067857Y-137203571D01*
X65210714Y-137203571D01*
X65710714Y-137203571D02*
X65710714Y-135703571D01*
X66353571Y-137203571D02*
X66353571Y-136417857D01*
X66282142Y-136275000D01*
X66139285Y-136203571D01*
X65925000Y-136203571D01*
X65782142Y-136275000D01*
X65710714Y-136346428D01*
X67710714Y-136203571D02*
X67710714Y-137203571D01*
X67067857Y-136203571D02*
X67067857Y-136989285D01*
X67139285Y-137132142D01*
X67282142Y-137203571D01*
X67496428Y-137203571D01*
X67639285Y-137132142D01*
X67710714Y-137060714D01*
X68425000Y-137203571D02*
X68425000Y-135703571D01*
X68425000Y-136275000D02*
X68567857Y-136203571D01*
X68853571Y-136203571D01*
X68996428Y-136275000D01*
X69067857Y-136346428D01*
X69139285Y-136489285D01*
X69139285Y-136917857D01*
X69067857Y-137060714D01*
X68996428Y-137132142D01*
X68853571Y-137203571D01*
X68567857Y-137203571D01*
X68425000Y-137132142D01*
X69782142Y-137060714D02*
X69853571Y-137132142D01*
X69782142Y-137203571D01*
X69710714Y-137132142D01*
X69782142Y-137060714D01*
X69782142Y-137203571D01*
X71139285Y-137132142D02*
X70996428Y-137203571D01*
X70710714Y-137203571D01*
X70567857Y-137132142D01*
X70496428Y-137060714D01*
X70425000Y-136917857D01*
X70425000Y-136489285D01*
X70496428Y-136346428D01*
X70567857Y-136275000D01*
X70710714Y-136203571D01*
X70996428Y-136203571D01*
X71139285Y-136275000D01*
X71996428Y-137203571D02*
X71853571Y-137132142D01*
X71782142Y-137060714D01*
X71710714Y-136917857D01*
X71710714Y-136489285D01*
X71782142Y-136346428D01*
X71853571Y-136275000D01*
X71996428Y-136203571D01*
X72210714Y-136203571D01*
X72353571Y-136275000D01*
X72425000Y-136346428D01*
X72496428Y-136489285D01*
X72496428Y-136917857D01*
X72425000Y-137060714D01*
X72353571Y-137132142D01*
X72210714Y-137203571D01*
X71996428Y-137203571D01*
X73139285Y-137203571D02*
X73139285Y-136203571D01*
X73139285Y-136346428D02*
X73210714Y-136275000D01*
X73353571Y-136203571D01*
X73567857Y-136203571D01*
X73710714Y-136275000D01*
X73782142Y-136417857D01*
X73782142Y-137203571D01*
X73782142Y-136417857D02*
X73853571Y-136275000D01*
X73996428Y-136203571D01*
X74210714Y-136203571D01*
X74353571Y-136275000D01*
X74425000Y-136417857D01*
X74425000Y-137203571D01*
X76210714Y-135632142D02*
X74925000Y-137560714D01*
X76639285Y-137132142D02*
X76782142Y-137203571D01*
X77067857Y-137203571D01*
X77210714Y-137132142D01*
X77282142Y-136989285D01*
X77282142Y-136917857D01*
X77210714Y-136775000D01*
X77067857Y-136703571D01*
X76853571Y-136703571D01*
X76710714Y-136632142D01*
X76639285Y-136489285D01*
X76639285Y-136417857D01*
X76710714Y-136275000D01*
X76853571Y-136203571D01*
X77067857Y-136203571D01*
X77210714Y-136275000D01*
X77925000Y-137203571D02*
X77925000Y-136203571D01*
X77925000Y-135703571D02*
X77853571Y-135775000D01*
X77925000Y-135846428D01*
X77996428Y-135775000D01*
X77925000Y-135703571D01*
X77925000Y-135846428D01*
X79282142Y-137203571D02*
X79282142Y-135703571D01*
X79282142Y-137132142D02*
X79139285Y-137203571D01*
X78853571Y-137203571D01*
X78710714Y-137132142D01*
X78639285Y-137060714D01*
X78567857Y-136917857D01*
X78567857Y-136489285D01*
X78639285Y-136346428D01*
X78710714Y-136275000D01*
X78853571Y-136203571D01*
X79139285Y-136203571D01*
X79282142Y-136275000D01*
X80639285Y-137203571D02*
X80639285Y-135703571D01*
X80639285Y-137132142D02*
X80496428Y-137203571D01*
X80210714Y-137203571D01*
X80067857Y-137132142D01*
X79996428Y-137060714D01*
X79925000Y-136917857D01*
X79925000Y-136489285D01*
X79996428Y-136346428D01*
X80067857Y-136275000D01*
X80210714Y-136203571D01*
X80496428Y-136203571D01*
X80639285Y-136275000D01*
X81567857Y-137203571D02*
X81425000Y-137132142D01*
X81353571Y-137060714D01*
X81282142Y-136917857D01*
X81282142Y-136489285D01*
X81353571Y-136346428D01*
X81425000Y-136275000D01*
X81567857Y-136203571D01*
X81782142Y-136203571D01*
X81925000Y-136275000D01*
X81996428Y-136346428D01*
X82067857Y-136489285D01*
X82067857Y-136917857D01*
X81996428Y-137060714D01*
X81925000Y-137132142D01*
X81782142Y-137203571D01*
X81567857Y-137203571D01*
X82925000Y-137203571D02*
X82782142Y-137132142D01*
X82710714Y-136989285D01*
X82710714Y-135703571D01*
X83710714Y-137203571D02*
X83567857Y-137132142D01*
X83496428Y-137060714D01*
X83425000Y-136917857D01*
X83425000Y-136489285D01*
X83496428Y-136346428D01*
X83567857Y-136275000D01*
X83710714Y-136203571D01*
X83925000Y-136203571D01*
X84067857Y-136275000D01*
X84139285Y-136346428D01*
X84210714Y-136489285D01*
X84210714Y-136917857D01*
X84139285Y-137060714D01*
X84067857Y-137132142D01*
X83925000Y-137203571D01*
X83710714Y-137203571D01*
X62710714Y-132254761D02*
X63948809Y-132254761D01*
X63282142Y-133016666D01*
X63567857Y-133016666D01*
X63758333Y-133111904D01*
X63853571Y-133207142D01*
X63948809Y-133397619D01*
X63948809Y-133873809D01*
X63853571Y-134064285D01*
X63758333Y-134159523D01*
X63567857Y-134254761D01*
X62996428Y-134254761D01*
X62805952Y-134159523D01*
X62710714Y-134064285D01*
X64805952Y-134254761D02*
X64805952Y-132254761D01*
X65282142Y-132254761D01*
X65567857Y-132350000D01*
X65758333Y-132540476D01*
X65853571Y-132730952D01*
X65948809Y-133111904D01*
X65948809Y-133397619D01*
X65853571Y-133778571D01*
X65758333Y-133969047D01*
X65567857Y-134159523D01*
X65282142Y-134254761D01*
X64805952Y-134254761D01*
X68329761Y-134254761D02*
X68329761Y-132254761D01*
X69091666Y-132254761D01*
X69282142Y-132350000D01*
X69377380Y-132445238D01*
X69472619Y-132635714D01*
X69472619Y-132921428D01*
X69377380Y-133111904D01*
X69282142Y-133207142D01*
X69091666Y-133302380D01*
X68329761Y-133302380D01*
X70329761Y-134254761D02*
X70329761Y-132921428D01*
X70329761Y-133302380D02*
X70425000Y-133111904D01*
X70520238Y-133016666D01*
X70710714Y-132921428D01*
X70901190Y-132921428D01*
X71567857Y-134254761D02*
X71567857Y-132921428D01*
X71567857Y-132254761D02*
X71472619Y-132350000D01*
X71567857Y-132445238D01*
X71663095Y-132350000D01*
X71567857Y-132254761D01*
X71567857Y-132445238D01*
X72520238Y-132921428D02*
X72520238Y-134254761D01*
X72520238Y-133111904D02*
X72615476Y-133016666D01*
X72805952Y-132921428D01*
X73091666Y-132921428D01*
X73282142Y-133016666D01*
X73377380Y-133207142D01*
X73377380Y-134254761D01*
X74044047Y-132921428D02*
X74805952Y-132921428D01*
X74329761Y-132254761D02*
X74329761Y-133969047D01*
X74425000Y-134159523D01*
X74615476Y-134254761D01*
X74805952Y-134254761D01*
X76234523Y-134159523D02*
X76044047Y-134254761D01*
X75663095Y-134254761D01*
X75472619Y-134159523D01*
X75377380Y-133969047D01*
X75377380Y-133207142D01*
X75472619Y-133016666D01*
X75663095Y-132921428D01*
X76044047Y-132921428D01*
X76234523Y-133016666D01*
X76329761Y-133207142D01*
X76329761Y-133397619D01*
X75377380Y-133588095D01*
X77186904Y-134254761D02*
X77186904Y-132921428D01*
X77186904Y-133302380D02*
X77282142Y-133111904D01*
X77377380Y-133016666D01*
X77567857Y-132921428D01*
X77758333Y-132921428D01*
X79948809Y-134254761D02*
X79948809Y-132254761D01*
X80710714Y-132254761D01*
X80901190Y-132350000D01*
X80996428Y-132445238D01*
X81091666Y-132635714D01*
X81091666Y-132921428D01*
X80996428Y-133111904D01*
X80901190Y-133207142D01*
X80710714Y-133302380D01*
X79948809Y-133302380D01*
X82234523Y-134254761D02*
X82044047Y-134159523D01*
X81948809Y-134064285D01*
X81853571Y-133873809D01*
X81853571Y-133302380D01*
X81948809Y-133111904D01*
X82044047Y-133016666D01*
X82234523Y-132921428D01*
X82520238Y-132921428D01*
X82710714Y-133016666D01*
X82805952Y-133111904D01*
X82901190Y-133302380D01*
X82901190Y-133873809D01*
X82805952Y-134064285D01*
X82710714Y-134159523D01*
X82520238Y-134254761D01*
X82234523Y-134254761D01*
X83567857Y-132921428D02*
X83948809Y-134254761D01*
X84329761Y-133302380D01*
X84710714Y-134254761D01*
X85091666Y-132921428D01*
X86615476Y-134159523D02*
X86425000Y-134254761D01*
X86044047Y-134254761D01*
X85853571Y-134159523D01*
X85758333Y-133969047D01*
X85758333Y-133207142D01*
X85853571Y-133016666D01*
X86044047Y-132921428D01*
X86425000Y-132921428D01*
X86615476Y-133016666D01*
X86710714Y-133207142D01*
X86710714Y-133397619D01*
X85758333Y-133588095D01*
X87567857Y-134254761D02*
X87567857Y-132921428D01*
X87567857Y-133302380D02*
X87663095Y-133111904D01*
X87758333Y-133016666D01*
X87948809Y-132921428D01*
X88139285Y-132921428D01*
X90329761Y-134254761D02*
X90329761Y-132254761D01*
X90805952Y-132254761D01*
X91091666Y-132350000D01*
X91282142Y-132540476D01*
X91377380Y-132730952D01*
X91472619Y-133111904D01*
X91472619Y-133397619D01*
X91377380Y-133778571D01*
X91282142Y-133969047D01*
X91091666Y-134159523D01*
X90805952Y-134254761D01*
X90329761Y-134254761D01*
X92329761Y-134254761D02*
X92329761Y-132921428D01*
X92329761Y-132254761D02*
X92234523Y-132350000D01*
X92329761Y-132445238D01*
X92425000Y-132350000D01*
X92329761Y-132254761D01*
X92329761Y-132445238D01*
X93186904Y-134159523D02*
X93377380Y-134254761D01*
X93758333Y-134254761D01*
X93948809Y-134159523D01*
X94044047Y-133969047D01*
X94044047Y-133873809D01*
X93948809Y-133683333D01*
X93758333Y-133588095D01*
X93472619Y-133588095D01*
X93282142Y-133492857D01*
X93186904Y-133302380D01*
X93186904Y-133207142D01*
X93282142Y-133016666D01*
X93472619Y-132921428D01*
X93758333Y-132921428D01*
X93948809Y-133016666D01*
X94615476Y-132921428D02*
X95377380Y-132921428D01*
X94901190Y-132254761D02*
X94901190Y-133969047D01*
X94996428Y-134159523D01*
X95186904Y-134254761D01*
X95377380Y-134254761D01*
X96044047Y-134254761D02*
X96044047Y-132921428D01*
X96044047Y-133302380D02*
X96139285Y-133111904D01*
X96234523Y-133016666D01*
X96425000Y-132921428D01*
X96615476Y-132921428D01*
X97282142Y-134254761D02*
X97282142Y-132921428D01*
X97282142Y-132254761D02*
X97186904Y-132350000D01*
X97282142Y-132445238D01*
X97377380Y-132350000D01*
X97282142Y-132254761D01*
X97282142Y-132445238D01*
X98234523Y-134254761D02*
X98234523Y-132254761D01*
X98234523Y-133016666D02*
X98425000Y-132921428D01*
X98805952Y-132921428D01*
X98996428Y-133016666D01*
X99091666Y-133111904D01*
X99186904Y-133302380D01*
X99186904Y-133873809D01*
X99091666Y-134064285D01*
X98996428Y-134159523D01*
X98805952Y-134254761D01*
X98425000Y-134254761D01*
X98234523Y-134159523D01*
X100901190Y-132921428D02*
X100901190Y-134254761D01*
X100044047Y-132921428D02*
X100044047Y-133969047D01*
X100139285Y-134159523D01*
X100329761Y-134254761D01*
X100615476Y-134254761D01*
X100805952Y-134159523D01*
X100901190Y-134064285D01*
X101567857Y-132921428D02*
X102329761Y-132921428D01*
X101853571Y-132254761D02*
X101853571Y-133969047D01*
X101948809Y-134159523D01*
X102139285Y-134254761D01*
X102329761Y-134254761D01*
X102996428Y-134254761D02*
X102996428Y-132921428D01*
X102996428Y-132254761D02*
X102901190Y-132350000D01*
X102996428Y-132445238D01*
X103091666Y-132350000D01*
X102996428Y-132254761D01*
X102996428Y-132445238D01*
X104234523Y-134254761D02*
X104044047Y-134159523D01*
X103948809Y-134064285D01*
X103853571Y-133873809D01*
X103853571Y-133302380D01*
X103948809Y-133111904D01*
X104044047Y-133016666D01*
X104234523Y-132921428D01*
X104520238Y-132921428D01*
X104710714Y-133016666D01*
X104805952Y-133111904D01*
X104901190Y-133302380D01*
X104901190Y-133873809D01*
X104805952Y-134064285D01*
X104710714Y-134159523D01*
X104520238Y-134254761D01*
X104234523Y-134254761D01*
X105758333Y-132921428D02*
X105758333Y-134254761D01*
X105758333Y-133111904D02*
X105853571Y-133016666D01*
X106044047Y-132921428D01*
X106329761Y-132921428D01*
X106520238Y-133016666D01*
X106615476Y-133207142D01*
X106615476Y-134254761D01*
X109758333Y-133207142D02*
X110044047Y-133302380D01*
X110139285Y-133397619D01*
X110234523Y-133588095D01*
X110234523Y-133873809D01*
X110139285Y-134064285D01*
X110044047Y-134159523D01*
X109853571Y-134254761D01*
X109091666Y-134254761D01*
X109091666Y-132254761D01*
X109758333Y-132254761D01*
X109948809Y-132350000D01*
X110044047Y-132445238D01*
X110139285Y-132635714D01*
X110139285Y-132826190D01*
X110044047Y-133016666D01*
X109948809Y-133111904D01*
X109758333Y-133207142D01*
X109091666Y-133207142D01*
X111377380Y-134254761D02*
X111186904Y-134159523D01*
X111091666Y-134064285D01*
X110996428Y-133873809D01*
X110996428Y-133302380D01*
X111091666Y-133111904D01*
X111186904Y-133016666D01*
X111377380Y-132921428D01*
X111663095Y-132921428D01*
X111853571Y-133016666D01*
X111948809Y-133111904D01*
X112044047Y-133302380D01*
X112044047Y-133873809D01*
X111948809Y-134064285D01*
X111853571Y-134159523D01*
X111663095Y-134254761D01*
X111377380Y-134254761D01*
X113758333Y-134254761D02*
X113758333Y-133207142D01*
X113663095Y-133016666D01*
X113472619Y-132921428D01*
X113091666Y-132921428D01*
X112901190Y-133016666D01*
X113758333Y-134159523D02*
X113567857Y-134254761D01*
X113091666Y-134254761D01*
X112901190Y-134159523D01*
X112805952Y-133969047D01*
X112805952Y-133778571D01*
X112901190Y-133588095D01*
X113091666Y-133492857D01*
X113567857Y-133492857D01*
X113758333Y-133397619D01*
X114710714Y-134254761D02*
X114710714Y-132921428D01*
X114710714Y-133302380D02*
X114805952Y-133111904D01*
X114901190Y-133016666D01*
X115091666Y-132921428D01*
X115282142Y-132921428D01*
X116805952Y-134254761D02*
X116805952Y-132254761D01*
X116805952Y-134159523D02*
X116615476Y-134254761D01*
X116234523Y-134254761D01*
X116044047Y-134159523D01*
X115948809Y-134064285D01*
X115853571Y-133873809D01*
X115853571Y-133302380D01*
X115948809Y-133111904D01*
X116044047Y-133016666D01*
X116234523Y-132921428D01*
X116615476Y-132921428D01*
X116805952Y-133016666D01*
X120329761Y-134254761D02*
X119186904Y-134254761D01*
X119758333Y-134254761D02*
X119758333Y-132254761D01*
X119567857Y-132540476D01*
X119377380Y-132730952D01*
X119186904Y-132826190D01*
X121186904Y-133492857D02*
X122710714Y-133492857D01*
X121948809Y-134254761D02*
X121948809Y-132730952D01*
X124520238Y-132921428D02*
X124520238Y-134254761D01*
X124044047Y-132159523D02*
X123567857Y-133588095D01*
X124805952Y-133588095D01*
X126901190Y-132921428D02*
X127377380Y-134254761D01*
X127853571Y-132921428D01*
X129663095Y-134254761D02*
X128520238Y-134254761D01*
X129091666Y-134254761D02*
X129091666Y-132254761D01*
X128901190Y-132540476D01*
X128710714Y-132730952D01*
X128520238Y-132826190D01*
X130520238Y-134064285D02*
X130615476Y-134159523D01*
X130520238Y-134254761D01*
X130424999Y-134159523D01*
X130520238Y-134064285D01*
X130520238Y-134254761D01*
X131853571Y-132254761D02*
X132044047Y-132254761D01*
X132234523Y-132350000D01*
X132329761Y-132445238D01*
X132424999Y-132635714D01*
X132520238Y-133016666D01*
X132520238Y-133492857D01*
X132424999Y-133873809D01*
X132329761Y-134064285D01*
X132234523Y-134159523D01*
X132044047Y-134254761D01*
X131853571Y-134254761D01*
X131663095Y-134159523D01*
X131567857Y-134064285D01*
X131472619Y-133873809D01*
X131377380Y-133492857D01*
X131377380Y-133016666D01*
X131472619Y-132635714D01*
X131567857Y-132445238D01*
X131663095Y-132350000D01*
X131853571Y-132254761D01*
D11*
X85390000Y-129910000D02*
X84790000Y-129910000D01*
X85090000Y-129310000D02*
X85390000Y-129910000D01*
X84790000Y-129910000D02*
X85090000Y-129310000D01*
X80840000Y-118390000D02*
X81090000Y-116890000D01*
X79340000Y-118390000D02*
X80840000Y-118390000D01*
X79090000Y-116890000D02*
X79340000Y-118390000D01*
X81090000Y-116890000D02*
X79090000Y-116890000D01*
X85840000Y-118390000D02*
X86090000Y-116890000D01*
X84340000Y-118390000D02*
X85840000Y-118390000D01*
X84090000Y-116890000D02*
X84340000Y-118390000D01*
X86090000Y-116890000D02*
X84090000Y-116890000D01*
X76480000Y-118390000D02*
X88700000Y-118390000D01*
X76480000Y-120190000D02*
X76480000Y-118390000D01*
X88700000Y-120190000D02*
X76480000Y-120190000D01*
X88700000Y-118390000D02*
X88700000Y-120190000D01*
X76480000Y-129110000D02*
X88700000Y-129110000D01*
X76480000Y-116890000D02*
X76480000Y-129110000D01*
X88700000Y-116890000D02*
X76480000Y-116890000D01*
X88700000Y-129110000D02*
X88700000Y-116890000D01*
X71420000Y-129910000D02*
X70820000Y-129910000D01*
X71120000Y-129310000D02*
X71420000Y-129910000D01*
X70820000Y-129910000D02*
X71120000Y-129310000D01*
X66870000Y-118390000D02*
X67120000Y-116890000D01*
X65370000Y-118390000D02*
X66870000Y-118390000D01*
X65120000Y-116890000D02*
X65370000Y-118390000D01*
X67120000Y-116890000D02*
X65120000Y-116890000D01*
X71870000Y-118390000D02*
X72120000Y-116890000D01*
X70370000Y-118390000D02*
X71870000Y-118390000D01*
X70120000Y-116890000D02*
X70370000Y-118390000D01*
X72120000Y-116890000D02*
X70120000Y-116890000D01*
X62510000Y-118390000D02*
X74730000Y-118390000D01*
X62510000Y-120190000D02*
X62510000Y-118390000D01*
X74730000Y-120190000D02*
X62510000Y-120190000D01*
X74730000Y-118390000D02*
X74730000Y-120190000D01*
X62510000Y-129110000D02*
X74730000Y-129110000D01*
X62510000Y-116890000D02*
X62510000Y-129110000D01*
X74730000Y-116890000D02*
X62510000Y-116890000D01*
X74730000Y-129110000D02*
X74730000Y-116890000D01*
X102670000Y-129110000D02*
X102670000Y-116890000D01*
X102670000Y-116890000D02*
X90450000Y-116890000D01*
X90450000Y-116890000D02*
X90450000Y-129110000D01*
X90450000Y-129110000D02*
X102670000Y-129110000D01*
X102670000Y-118390000D02*
X102670000Y-120190000D01*
X102670000Y-120190000D02*
X90450000Y-120190000D01*
X90450000Y-120190000D02*
X90450000Y-118390000D01*
X90450000Y-118390000D02*
X102670000Y-118390000D01*
X100060000Y-116890000D02*
X98060000Y-116890000D01*
X98060000Y-116890000D02*
X98310000Y-118390000D01*
X98310000Y-118390000D02*
X99810000Y-118390000D01*
X99810000Y-118390000D02*
X100060000Y-116890000D01*
X95060000Y-116890000D02*
X93060000Y-116890000D01*
X93060000Y-116890000D02*
X93310000Y-118390000D01*
X93310000Y-118390000D02*
X94810000Y-118390000D01*
X94810000Y-118390000D02*
X95060000Y-116890000D01*
X98760000Y-129910000D02*
X99060000Y-129310000D01*
X99060000Y-129310000D02*
X99360000Y-129910000D01*
X99360000Y-129910000D02*
X98760000Y-129910000D01*
X113330000Y-129910000D02*
X112730000Y-129910000D01*
X113030000Y-129310000D02*
X113330000Y-129910000D01*
X112730000Y-129910000D02*
X113030000Y-129310000D01*
X108780000Y-118390000D02*
X109030000Y-116890000D01*
X107280000Y-118390000D02*
X108780000Y-118390000D01*
X107030000Y-116890000D02*
X107280000Y-118390000D01*
X109030000Y-116890000D02*
X107030000Y-116890000D01*
X113780000Y-118390000D02*
X114030000Y-116890000D01*
X112280000Y-118390000D02*
X113780000Y-118390000D01*
X112030000Y-116890000D02*
X112280000Y-118390000D01*
X114030000Y-116890000D02*
X112030000Y-116890000D01*
X104420000Y-118390000D02*
X116640000Y-118390000D01*
X104420000Y-120190000D02*
X104420000Y-118390000D01*
X116640000Y-120190000D02*
X104420000Y-120190000D01*
X116640000Y-118390000D02*
X116640000Y-120190000D01*
X104420000Y-129110000D02*
X116640000Y-129110000D01*
X104420000Y-116890000D02*
X104420000Y-129110000D01*
X116640000Y-116890000D02*
X104420000Y-116890000D01*
X116640000Y-129110000D02*
X116640000Y-116890000D01*
X130610000Y-129110000D02*
X130610000Y-116890000D01*
X130610000Y-116890000D02*
X118390000Y-116890000D01*
X118390000Y-116890000D02*
X118390000Y-129110000D01*
X118390000Y-129110000D02*
X130610000Y-129110000D01*
X130610000Y-118390000D02*
X130610000Y-120190000D01*
X130610000Y-120190000D02*
X118390000Y-120190000D01*
X118390000Y-120190000D02*
X118390000Y-118390000D01*
X118390000Y-118390000D02*
X130610000Y-118390000D01*
X128000000Y-116890000D02*
X126000000Y-116890000D01*
X126000000Y-116890000D02*
X126250000Y-118390000D01*
X126250000Y-118390000D02*
X127750000Y-118390000D01*
X127750000Y-118390000D02*
X128000000Y-116890000D01*
X123000000Y-116890000D02*
X121000000Y-116890000D01*
X121000000Y-116890000D02*
X121250000Y-118390000D01*
X121250000Y-118390000D02*
X122750000Y-118390000D01*
X122750000Y-118390000D02*
X123000000Y-116890000D01*
X126700000Y-129910000D02*
X127000000Y-129310000D01*
X127000000Y-129310000D02*
X127300000Y-129910000D01*
X127300000Y-129910000D02*
X126700000Y-129910000D01*
D12*
X82256666Y-129652380D02*
X82256666Y-130366666D01*
X82209047Y-130509523D01*
X82113809Y-130604761D01*
X81970952Y-130652380D01*
X81875714Y-130652380D01*
X82685238Y-129747619D02*
X82732857Y-129700000D01*
X82828095Y-129652380D01*
X83066190Y-129652380D01*
X83161428Y-129700000D01*
X83209047Y-129747619D01*
X83256666Y-129842857D01*
X83256666Y-129938095D01*
X83209047Y-130080952D01*
X82637619Y-130652380D01*
X83256666Y-130652380D01*
X68286666Y-129652380D02*
X68286666Y-130366666D01*
X68239047Y-130509523D01*
X68143809Y-130604761D01*
X68000952Y-130652380D01*
X67905714Y-130652380D01*
X69286666Y-130652380D02*
X68715238Y-130652380D01*
X69000952Y-130652380D02*
X69000952Y-129652380D01*
X68905714Y-129795238D01*
X68810476Y-129890476D01*
X68715238Y-129938095D01*
X96226666Y-129652380D02*
X96226666Y-130366666D01*
X96179047Y-130509523D01*
X96083809Y-130604761D01*
X95940952Y-130652380D01*
X95845714Y-130652380D01*
X96607619Y-129652380D02*
X97226666Y-129652380D01*
X96893333Y-130033333D01*
X97036190Y-130033333D01*
X97131428Y-130080952D01*
X97179047Y-130128571D01*
X97226666Y-130223809D01*
X97226666Y-130461904D01*
X97179047Y-130557142D01*
X97131428Y-130604761D01*
X97036190Y-130652380D01*
X96750476Y-130652380D01*
X96655238Y-130604761D01*
X96607619Y-130557142D01*
X110196666Y-129652380D02*
X110196666Y-130366666D01*
X110149047Y-130509523D01*
X110053809Y-130604761D01*
X109910952Y-130652380D01*
X109815714Y-130652380D01*
X111101428Y-129985714D02*
X111101428Y-130652380D01*
X110863333Y-129604761D02*
X110625238Y-130319047D01*
X111244285Y-130319047D01*
X124166666Y-129652380D02*
X124166666Y-130366666D01*
X124119047Y-130509523D01*
X124023809Y-130604761D01*
X123880952Y-130652380D01*
X123785714Y-130652380D01*
X125119047Y-129652380D02*
X124642857Y-129652380D01*
X124595238Y-130128571D01*
X124642857Y-130080952D01*
X124738095Y-130033333D01*
X124976190Y-130033333D01*
X125071428Y-130080952D01*
X125119047Y-130128571D01*
X125166666Y-130223809D01*
X125166666Y-130461904D01*
X125119047Y-130557142D01*
X125071428Y-130604761D01*
X124976190Y-130652380D01*
X124738095Y-130652380D01*
X124642857Y-130604761D01*
X124595238Y-130557142D01*
M02*
