G04 #@! TF.GenerationSoftware,KiCad,Pcbnew,5.1.5-52549c5~84~ubuntu18.04.1*
G04 #@! TF.CreationDate,2020-01-16T18:33:31+01:00*
G04 #@! TF.ProjectId,3d-printer-power-distribution-board,33642d70-7269-46e7-9465-722d706f7765,rev?*
G04 #@! TF.SameCoordinates,Original*
G04 #@! TF.FileFunction,Copper,L2,Bot*
G04 #@! TF.FilePolarity,Positive*
%FSLAX46Y46*%
G04 Gerber Fmt 4.6, Leading zero omitted, Abs format (unit mm)*
G04 Created by KiCad (PCBNEW 5.1.5-52549c5~84~ubuntu18.04.1) date 2020-01-16 18:33:31*
%MOMM*%
%LPD*%
G04 APERTURE LIST*
%ADD10O,2.000000X3.600000*%
%ADD11C,0.100000*%
%ADD12C,4.800000*%
%ADD13C,2.250000*%
G04 APERTURE END LIST*
D10*
X80090000Y-127000000D03*
G04 #@! TA.AperFunction,ComponentPad*
D11*
G36*
X85864504Y-125201204D02*
G01*
X85888773Y-125204804D01*
X85912571Y-125210765D01*
X85935671Y-125219030D01*
X85957849Y-125229520D01*
X85978893Y-125242133D01*
X85998598Y-125256747D01*
X86016777Y-125273223D01*
X86033253Y-125291402D01*
X86047867Y-125311107D01*
X86060480Y-125332151D01*
X86070970Y-125354329D01*
X86079235Y-125377429D01*
X86085196Y-125401227D01*
X86088796Y-125425496D01*
X86090000Y-125450000D01*
X86090000Y-128550000D01*
X86088796Y-128574504D01*
X86085196Y-128598773D01*
X86079235Y-128622571D01*
X86070970Y-128645671D01*
X86060480Y-128667849D01*
X86047867Y-128688893D01*
X86033253Y-128708598D01*
X86016777Y-128726777D01*
X85998598Y-128743253D01*
X85978893Y-128757867D01*
X85957849Y-128770480D01*
X85935671Y-128780970D01*
X85912571Y-128789235D01*
X85888773Y-128795196D01*
X85864504Y-128798796D01*
X85840000Y-128800000D01*
X84340000Y-128800000D01*
X84315496Y-128798796D01*
X84291227Y-128795196D01*
X84267429Y-128789235D01*
X84244329Y-128780970D01*
X84222151Y-128770480D01*
X84201107Y-128757867D01*
X84181402Y-128743253D01*
X84163223Y-128726777D01*
X84146747Y-128708598D01*
X84132133Y-128688893D01*
X84119520Y-128667849D01*
X84109030Y-128645671D01*
X84100765Y-128622571D01*
X84094804Y-128598773D01*
X84091204Y-128574504D01*
X84090000Y-128550000D01*
X84090000Y-125450000D01*
X84091204Y-125425496D01*
X84094804Y-125401227D01*
X84100765Y-125377429D01*
X84109030Y-125354329D01*
X84119520Y-125332151D01*
X84132133Y-125311107D01*
X84146747Y-125291402D01*
X84163223Y-125273223D01*
X84181402Y-125256747D01*
X84201107Y-125242133D01*
X84222151Y-125229520D01*
X84244329Y-125219030D01*
X84267429Y-125210765D01*
X84291227Y-125204804D01*
X84315496Y-125201204D01*
X84340000Y-125200000D01*
X85840000Y-125200000D01*
X85864504Y-125201204D01*
G37*
G04 #@! TD.AperFunction*
D10*
X66120000Y-127000000D03*
G04 #@! TA.AperFunction,ComponentPad*
D11*
G36*
X71894504Y-125201204D02*
G01*
X71918773Y-125204804D01*
X71942571Y-125210765D01*
X71965671Y-125219030D01*
X71987849Y-125229520D01*
X72008893Y-125242133D01*
X72028598Y-125256747D01*
X72046777Y-125273223D01*
X72063253Y-125291402D01*
X72077867Y-125311107D01*
X72090480Y-125332151D01*
X72100970Y-125354329D01*
X72109235Y-125377429D01*
X72115196Y-125401227D01*
X72118796Y-125425496D01*
X72120000Y-125450000D01*
X72120000Y-128550000D01*
X72118796Y-128574504D01*
X72115196Y-128598773D01*
X72109235Y-128622571D01*
X72100970Y-128645671D01*
X72090480Y-128667849D01*
X72077867Y-128688893D01*
X72063253Y-128708598D01*
X72046777Y-128726777D01*
X72028598Y-128743253D01*
X72008893Y-128757867D01*
X71987849Y-128770480D01*
X71965671Y-128780970D01*
X71942571Y-128789235D01*
X71918773Y-128795196D01*
X71894504Y-128798796D01*
X71870000Y-128800000D01*
X70370000Y-128800000D01*
X70345496Y-128798796D01*
X70321227Y-128795196D01*
X70297429Y-128789235D01*
X70274329Y-128780970D01*
X70252151Y-128770480D01*
X70231107Y-128757867D01*
X70211402Y-128743253D01*
X70193223Y-128726777D01*
X70176747Y-128708598D01*
X70162133Y-128688893D01*
X70149520Y-128667849D01*
X70139030Y-128645671D01*
X70130765Y-128622571D01*
X70124804Y-128598773D01*
X70121204Y-128574504D01*
X70120000Y-128550000D01*
X70120000Y-125450000D01*
X70121204Y-125425496D01*
X70124804Y-125401227D01*
X70130765Y-125377429D01*
X70139030Y-125354329D01*
X70149520Y-125332151D01*
X70162133Y-125311107D01*
X70176747Y-125291402D01*
X70193223Y-125273223D01*
X70211402Y-125256747D01*
X70231107Y-125242133D01*
X70252151Y-125229520D01*
X70274329Y-125219030D01*
X70297429Y-125210765D01*
X70321227Y-125204804D01*
X70345496Y-125201204D01*
X70370000Y-125200000D01*
X71870000Y-125200000D01*
X71894504Y-125201204D01*
G37*
G04 #@! TD.AperFunction*
G04 #@! TA.AperFunction,ComponentPad*
G36*
X99834504Y-125201204D02*
G01*
X99858773Y-125204804D01*
X99882571Y-125210765D01*
X99905671Y-125219030D01*
X99927849Y-125229520D01*
X99948893Y-125242133D01*
X99968598Y-125256747D01*
X99986777Y-125273223D01*
X100003253Y-125291402D01*
X100017867Y-125311107D01*
X100030480Y-125332151D01*
X100040970Y-125354329D01*
X100049235Y-125377429D01*
X100055196Y-125401227D01*
X100058796Y-125425496D01*
X100060000Y-125450000D01*
X100060000Y-128550000D01*
X100058796Y-128574504D01*
X100055196Y-128598773D01*
X100049235Y-128622571D01*
X100040970Y-128645671D01*
X100030480Y-128667849D01*
X100017867Y-128688893D01*
X100003253Y-128708598D01*
X99986777Y-128726777D01*
X99968598Y-128743253D01*
X99948893Y-128757867D01*
X99927849Y-128770480D01*
X99905671Y-128780970D01*
X99882571Y-128789235D01*
X99858773Y-128795196D01*
X99834504Y-128798796D01*
X99810000Y-128800000D01*
X98310000Y-128800000D01*
X98285496Y-128798796D01*
X98261227Y-128795196D01*
X98237429Y-128789235D01*
X98214329Y-128780970D01*
X98192151Y-128770480D01*
X98171107Y-128757867D01*
X98151402Y-128743253D01*
X98133223Y-128726777D01*
X98116747Y-128708598D01*
X98102133Y-128688893D01*
X98089520Y-128667849D01*
X98079030Y-128645671D01*
X98070765Y-128622571D01*
X98064804Y-128598773D01*
X98061204Y-128574504D01*
X98060000Y-128550000D01*
X98060000Y-125450000D01*
X98061204Y-125425496D01*
X98064804Y-125401227D01*
X98070765Y-125377429D01*
X98079030Y-125354329D01*
X98089520Y-125332151D01*
X98102133Y-125311107D01*
X98116747Y-125291402D01*
X98133223Y-125273223D01*
X98151402Y-125256747D01*
X98171107Y-125242133D01*
X98192151Y-125229520D01*
X98214329Y-125219030D01*
X98237429Y-125210765D01*
X98261227Y-125204804D01*
X98285496Y-125201204D01*
X98310000Y-125200000D01*
X99810000Y-125200000D01*
X99834504Y-125201204D01*
G37*
G04 #@! TD.AperFunction*
D10*
X94060000Y-127000000D03*
X108030000Y-127000000D03*
G04 #@! TA.AperFunction,ComponentPad*
D11*
G36*
X113804504Y-125201204D02*
G01*
X113828773Y-125204804D01*
X113852571Y-125210765D01*
X113875671Y-125219030D01*
X113897849Y-125229520D01*
X113918893Y-125242133D01*
X113938598Y-125256747D01*
X113956777Y-125273223D01*
X113973253Y-125291402D01*
X113987867Y-125311107D01*
X114000480Y-125332151D01*
X114010970Y-125354329D01*
X114019235Y-125377429D01*
X114025196Y-125401227D01*
X114028796Y-125425496D01*
X114030000Y-125450000D01*
X114030000Y-128550000D01*
X114028796Y-128574504D01*
X114025196Y-128598773D01*
X114019235Y-128622571D01*
X114010970Y-128645671D01*
X114000480Y-128667849D01*
X113987867Y-128688893D01*
X113973253Y-128708598D01*
X113956777Y-128726777D01*
X113938598Y-128743253D01*
X113918893Y-128757867D01*
X113897849Y-128770480D01*
X113875671Y-128780970D01*
X113852571Y-128789235D01*
X113828773Y-128795196D01*
X113804504Y-128798796D01*
X113780000Y-128800000D01*
X112280000Y-128800000D01*
X112255496Y-128798796D01*
X112231227Y-128795196D01*
X112207429Y-128789235D01*
X112184329Y-128780970D01*
X112162151Y-128770480D01*
X112141107Y-128757867D01*
X112121402Y-128743253D01*
X112103223Y-128726777D01*
X112086747Y-128708598D01*
X112072133Y-128688893D01*
X112059520Y-128667849D01*
X112049030Y-128645671D01*
X112040765Y-128622571D01*
X112034804Y-128598773D01*
X112031204Y-128574504D01*
X112030000Y-128550000D01*
X112030000Y-125450000D01*
X112031204Y-125425496D01*
X112034804Y-125401227D01*
X112040765Y-125377429D01*
X112049030Y-125354329D01*
X112059520Y-125332151D01*
X112072133Y-125311107D01*
X112086747Y-125291402D01*
X112103223Y-125273223D01*
X112121402Y-125256747D01*
X112141107Y-125242133D01*
X112162151Y-125229520D01*
X112184329Y-125219030D01*
X112207429Y-125210765D01*
X112231227Y-125204804D01*
X112255496Y-125201204D01*
X112280000Y-125200000D01*
X113780000Y-125200000D01*
X113804504Y-125201204D01*
G37*
G04 #@! TD.AperFunction*
G04 #@! TA.AperFunction,ComponentPad*
G36*
X127774504Y-125201204D02*
G01*
X127798773Y-125204804D01*
X127822571Y-125210765D01*
X127845671Y-125219030D01*
X127867849Y-125229520D01*
X127888893Y-125242133D01*
X127908598Y-125256747D01*
X127926777Y-125273223D01*
X127943253Y-125291402D01*
X127957867Y-125311107D01*
X127970480Y-125332151D01*
X127980970Y-125354329D01*
X127989235Y-125377429D01*
X127995196Y-125401227D01*
X127998796Y-125425496D01*
X128000000Y-125450000D01*
X128000000Y-128550000D01*
X127998796Y-128574504D01*
X127995196Y-128598773D01*
X127989235Y-128622571D01*
X127980970Y-128645671D01*
X127970480Y-128667849D01*
X127957867Y-128688893D01*
X127943253Y-128708598D01*
X127926777Y-128726777D01*
X127908598Y-128743253D01*
X127888893Y-128757867D01*
X127867849Y-128770480D01*
X127845671Y-128780970D01*
X127822571Y-128789235D01*
X127798773Y-128795196D01*
X127774504Y-128798796D01*
X127750000Y-128800000D01*
X126250000Y-128800000D01*
X126225496Y-128798796D01*
X126201227Y-128795196D01*
X126177429Y-128789235D01*
X126154329Y-128780970D01*
X126132151Y-128770480D01*
X126111107Y-128757867D01*
X126091402Y-128743253D01*
X126073223Y-128726777D01*
X126056747Y-128708598D01*
X126042133Y-128688893D01*
X126029520Y-128667849D01*
X126019030Y-128645671D01*
X126010765Y-128622571D01*
X126004804Y-128598773D01*
X126001204Y-128574504D01*
X126000000Y-128550000D01*
X126000000Y-125450000D01*
X126001204Y-125425496D01*
X126004804Y-125401227D01*
X126010765Y-125377429D01*
X126019030Y-125354329D01*
X126029520Y-125332151D01*
X126042133Y-125311107D01*
X126056747Y-125291402D01*
X126073223Y-125273223D01*
X126091402Y-125256747D01*
X126111107Y-125242133D01*
X126132151Y-125229520D01*
X126154329Y-125219030D01*
X126177429Y-125210765D01*
X126201227Y-125204804D01*
X126225496Y-125201204D01*
X126250000Y-125200000D01*
X127750000Y-125200000D01*
X127774504Y-125201204D01*
G37*
G04 #@! TD.AperFunction*
D10*
X122000000Y-127000000D03*
D12*
X137160000Y-121920000D03*
X137160000Y-137160000D03*
X55880000Y-137160000D03*
X55880000Y-121920000D03*
D13*
X85090000Y-123190000D02*
X85090000Y-127000000D01*
X82550000Y-120650000D02*
X85090000Y-123190000D01*
X73660000Y-120650000D02*
X82550000Y-120650000D01*
X71120000Y-127000000D02*
X71120000Y-123190000D01*
X71120000Y-123190000D02*
X73660000Y-120650000D01*
X85090000Y-123190000D02*
X87630000Y-120650000D01*
X87630000Y-120650000D02*
X96520000Y-120650000D01*
X99060000Y-123190000D02*
X99060000Y-127000000D01*
X96520000Y-120650000D02*
X99060000Y-123190000D01*
X99060000Y-123190000D02*
X101600000Y-120650000D01*
X101600000Y-120650000D02*
X110490000Y-120650000D01*
X113030000Y-123190000D02*
X113030000Y-127000000D01*
X110490000Y-120650000D02*
X113030000Y-123190000D01*
X113030000Y-123190000D02*
X115570000Y-120650000D01*
X115570000Y-120650000D02*
X124460000Y-120650000D01*
X127000000Y-123190000D02*
X127000000Y-127000000D01*
X124460000Y-120650000D02*
X127000000Y-123190000D01*
X66120000Y-131050000D02*
X68420000Y-133350000D01*
X66120000Y-127000000D02*
X66120000Y-131050000D01*
X80090000Y-131050000D02*
X80090000Y-127000000D01*
X77790000Y-133350000D02*
X80090000Y-131050000D01*
X68420000Y-133350000D02*
X77790000Y-133350000D01*
X80090000Y-131050000D02*
X82390000Y-133350000D01*
X94060000Y-131050000D02*
X94060000Y-127000000D01*
X91760000Y-133350000D02*
X94060000Y-131050000D01*
X82390000Y-133350000D02*
X91760000Y-133350000D01*
X94060000Y-131050000D02*
X96360000Y-133350000D01*
X108030000Y-131050000D02*
X108030000Y-127000000D01*
X105730000Y-133350000D02*
X108030000Y-131050000D01*
X96360000Y-133350000D02*
X105730000Y-133350000D01*
X108030000Y-131050000D02*
X110330000Y-133350000D01*
X122000000Y-131050000D02*
X122000000Y-127000000D01*
X119700000Y-133350000D02*
X122000000Y-131050000D01*
X110330000Y-133350000D02*
X119700000Y-133350000D01*
M02*
